<svg width="75" height="75" viewBox="0 0 75 75" fill="none" xmlns="http://www.w3.org/2000/svg">
<path d="M66.5947 25.669L65.9813 26.0823L66.5934 26.4974C69.9028 28.7421 71.9248 31.7288 72.3625 34.8884C72.7993 38.0413 71.6399 41.2293 69.0312 43.8723C66.4173 46.5205 62.53 48.4324 58.0625 49.2282C53.597 50.0237 48.8812 49.6448 44.7829 48.1664L44.1133 47.9248V48.6367L44.1133 57.7727L44.1133 57.7734C44.1169 60.1745 43.2854 62.5528 41.6705 64.6955C40.0538 66.8405 37.7026 68.6813 34.8142 70.0395C31.9265 71.3974 28.6028 72.2252 25.1425 72.4425C21.6824 72.6598 18.2032 72.2593 15.02 71.2797C11.8362 70.3 9.05845 68.775 6.92956 66.8531C4.80135 64.9318 3.39427 62.6803 2.80898 60.3086C2.22445 57.94 2.47198 55.5036 3.53765 53.2104C4.60502 50.9136 6.46545 48.8216 8.97326 47.1344L9.61473 46.7028L8.95802 46.2948C6.95565 45.0508 5.35484 43.5294 4.24785 41.8366C3.1418 40.1452 2.5521 38.3192 2.5033 36.4749C2.45451 34.6309 2.9471 32.7922 3.96121 31.0751C4.9763 29.3563 6.49336 27.7948 8.42657 26.499L9.04461 26.0847L8.42755 25.669C5.65923 23.8039 3.76993 21.41 2.96342 18.8149C2.15902 16.2267 2.45757 13.5245 3.83572 11.0444C5.21758 8.5577 7.62984 6.39649 10.7899 4.86259C13.9488 3.32926 17.6912 2.5031 21.5315 2.5H53.4908C57.3311 2.5031 61.0734 3.32926 64.2323 4.86259C67.3924 6.39649 69.8047 8.5577 71.1865 11.0444C72.5647 13.5245 72.8632 16.2267 72.0588 18.8149C71.2523 21.41 69.363 23.8039 66.5947 25.669ZM44.1133 22.281V22.781H44.6133H53.491C55.9334 22.781 58.2969 22.0895 60.059 20.8316C61.8231 19.5722 62.8687 17.8215 62.8687 15.9432C62.8687 14.0649 61.8231 12.3141 60.059 11.0547C58.2969 9.79681 55.9334 9.10536 53.491 9.10536H44.6133H44.1133V9.60536V22.281ZM34.4601 9.60536V9.10536H33.9601H21.5313C19.0889 9.10536 16.7253 9.79681 14.9633 11.0547C13.1992 12.3141 12.1536 14.0649 12.1536 15.9432C12.1536 17.8215 13.1992 19.5722 14.9633 20.8316C16.7253 22.0895 19.0889 22.781 21.5313 22.781H33.9601H34.4601V22.281V9.60536ZM34.4601 29.8863V29.3863H33.9601H21.5313C19.0889 29.3863 16.7253 30.0778 14.9633 31.3357C13.1992 32.5951 12.1536 34.3458 12.1536 36.2241C12.1536 38.1024 13.1992 39.8532 14.9633 41.1126C16.7253 42.3705 19.0889 43.0619 21.5313 43.0619H33.9601H34.4601V42.5619V29.8863ZM34.4601 50.1673V49.6673H33.9601H23.3068C21.1318 49.6673 18.9977 50.1273 17.1729 50.9978C15.3493 51.8677 13.8987 53.1177 13.0321 54.6113C12.1618 56.1111 11.9275 57.7786 12.3766 59.3906C12.8241 60.9964 13.9193 62.4409 15.4833 63.5574C17.0471 64.6738 19.0235 65.4238 21.1582 65.7269C23.2936 66.0302 25.5081 65.8751 27.5254 65.2786C29.5415 64.6824 31.2879 63.6665 32.5297 62.3397C33.774 61.0102 34.4601 59.4215 34.4601 57.7727V50.1673ZM48.3435 41.9451C49.8763 42.6763 51.6671 43.0619 53.491 43.0619C55.9334 43.0619 58.2969 42.3705 60.059 41.1126C61.8231 39.8532 62.8687 38.1024 62.8687 36.2241C62.8687 34.826 62.2868 33.4824 61.2375 32.3614C60.1908 31.243 58.7217 30.3895 57.0301 29.8893C55.3372 29.3887 53.4797 29.2587 51.6887 29.5131C49.8984 29.7673 48.2385 30.3966 46.923 31.3357C45.6073 32.275 44.6811 33.4936 44.3022 34.8535C43.9216 36.2196 44.1208 37.6322 44.8566 38.9004C45.5888 40.1624 46.8119 41.2145 48.3435 41.9451Z" fill="black" stroke="black"/>
</svg>
