<svg width="150" height="150" viewBox="0 0 150 150" fill="none" xmlns="http://www.w3.org/2000/svg">
<path d="M12.5 75C15.8152 75 18.9946 73.683 21.3388 71.3388C23.683 68.9946 25 65.8152 25 62.5V37.5C25 34.1848 26.317 31.0054 28.6612 28.6612C31.0054 26.317 34.1848 25 37.5 25H112.5C115.815 25 118.995 26.317 121.339 28.6612C123.683 31.0054 125 34.1848 125 37.5V62.5C125 65.8152 126.317 68.9946 128.661 71.3388C131.005 73.683 134.185 75 137.5 75M12.5 75C15.8152 75 18.9946 76.317 21.3388 78.6612C23.683 81.0054 25 84.1848 25 87.5V112.5C25 115.815 26.317 118.995 28.6612 121.339C31.0054 123.683 34.1848 125 37.5 125H112.5C115.815 125 118.995 123.683 121.339 121.339C123.683 118.995 125 115.815 125 112.5V87.5C125 84.1848 126.317 81.0054 128.661 78.6612C131.005 76.317 134.185 75 137.5 75" stroke="black" stroke-width="10" stroke-linecap="round" stroke-linejoin="round"/>
<path d="M56.25 100V50H78.125C81.4402 50 84.6196 51.317 86.9638 53.6612C89.308 56.0054 90.625 59.1848 90.625 62.5C90.625 65.8152 89.308 68.9946 86.9638 71.3388C84.6196 73.683 81.4402 75 78.125 75H56.25H81.25C84.5652 75 87.7446 76.317 90.0888 78.6612C92.433 81.0054 93.75 84.1848 93.75 87.5C93.75 90.8152 92.433 93.9946 90.0888 96.3388C87.7446 98.683 84.5652 100 81.25 100H56.25Z" stroke="black" stroke-width="7" stroke-linecap="round" stroke-linejoin="round"/>
</svg>
