<svg width="938" height="188" viewBox="0 0 938 188" fill="none" xmlns="http://www.w3.org/2000/svg">
<g filter="url(#filter0_d_2_18)">
<rect width="930" height="180" transform="translate(4)" fill="white" fill-opacity="0.66"/>
<g filter="url(#filter1_d_2_18)">
<rect width="880" height="110" transform="translate(30 35)" fill="#7B8FA1" fill-opacity="0.88"/>
<g clip-path="url(#clip0_2_18)">
<g filter="url(#filter2_d_2_18)">
<path d="M300.64 114V67.12H283.36V61.52H324.64V67.12H307.36V114H300.64ZM347.649 114.96C345.249 114.96 343.035 114.533 341.009 113.68C338.982 112.773 337.382 111.493 336.209 109.84C335.035 108.187 334.449 106.213 334.449 103.92C334.449 99.5467 336.635 96.24 341.009 94C345.382 91.7067 352.582 90.16 362.609 89.36C362.555 87.6 362.182 85.9733 361.489 84.48C360.849 82.9867 359.782 81.8133 358.289 80.96C356.795 80.0533 354.795 79.6 352.289 79.6C350.635 79.6 348.982 79.84 347.329 80.32C345.729 80.7467 344.182 81.3333 342.689 82.08C341.249 82.7733 339.915 83.4933 338.689 84.24L336.129 79.76C337.409 78.9067 338.955 78.0533 340.769 77.2C342.635 76.2933 344.635 75.5733 346.769 75.04C348.902 74.4533 351.115 74.16 353.409 74.16C356.982 74.16 359.915 74.8267 362.209 76.16C364.555 77.4933 366.289 79.36 367.409 81.76C368.582 84.1067 369.169 86.9067 369.169 90.16V114H363.809L363.249 108.72H363.009C360.875 110.427 358.475 111.893 355.809 113.12C353.142 114.347 350.422 114.96 347.649 114.96ZM349.409 109.68C351.649 109.68 353.862 109.173 356.049 108.16C358.235 107.147 360.422 105.733 362.609 103.92V93.68C357.062 94.16 352.689 94.8267 349.489 95.68C346.342 96.5333 344.102 97.6267 342.769 98.96C341.489 100.24 340.849 101.733 340.849 103.44C340.849 104.88 341.249 106.08 342.049 107.04C342.849 107.947 343.889 108.613 345.169 109.04C346.502 109.467 347.915 109.68 349.409 109.68ZM407.458 114.96C403.671 114.96 400.684 114.293 398.498 112.96C396.311 111.573 394.738 109.68 393.778 107.28C392.871 104.88 392.418 102.08 392.418 98.88V80.48H381.458V75.52L392.658 75.12L393.538 62.64H398.978V75.12H418.098V80.48H398.978V98.96C398.978 101.253 399.271 103.2 399.858 104.8C400.444 106.4 401.458 107.6 402.898 108.4C404.338 109.2 406.311 109.6 408.818 109.6C410.684 109.6 412.364 109.44 413.858 109.12C415.351 108.8 416.791 108.373 418.177 107.84L419.618 112.64C417.858 113.28 415.991 113.813 414.018 114.24C412.098 114.72 409.911 114.96 407.458 114.96ZM439.426 131.36C437.4 131.36 435.426 131.093 433.506 130.56C431.586 130.08 429.853 129.467 428.306 128.72L430.466 123.84C431.853 124.533 433.293 125.067 434.786 125.44C436.333 125.813 437.853 126 439.346 126C441.96 126 443.96 125.573 445.346 124.72C446.786 123.92 447.773 122.72 448.306 121.12C448.893 119.52 449.186 117.627 449.186 115.44V80.48H431.106V75.12H455.746V114.96C455.746 117.36 455.48 119.547 454.946 121.52C454.413 123.547 453.533 125.28 452.306 126.72C451.08 128.213 449.4 129.36 447.266 130.16C445.186 130.96 442.573 131.36 439.426 131.36ZM451.746 66.96C450.253 66.96 449 66.5067 447.986 65.6C446.973 64.64 446.466 63.3867 446.466 61.84C446.466 60.2933 446.973 59.0667 447.986 58.16C449 57.2 450.253 56.72 451.746 56.72C453.24 56.72 454.493 57.2 455.506 58.16C456.52 59.0667 457.026 60.2933 457.026 61.84C457.026 63.3867 456.52 64.64 455.506 65.6C454.493 66.5067 453.24 66.96 451.746 66.96ZM491.555 114.96C489.155 114.96 486.942 114.533 484.915 113.68C482.888 112.773 481.288 111.493 480.115 109.84C478.942 108.187 478.355 106.213 478.355 103.92C478.355 99.5467 480.542 96.24 484.915 94C489.288 91.7067 496.488 90.16 506.515 89.36C506.462 87.6 506.088 85.9733 505.395 84.48C504.755 82.9867 503.688 81.8133 502.195 80.96C500.702 80.0533 498.702 79.6 496.195 79.6C494.542 79.6 492.888 79.84 491.235 80.32C489.635 80.7467 488.088 81.3333 486.595 82.08C485.155 82.7733 483.822 83.4933 482.595 84.24L480.035 79.76C481.315 78.9067 482.862 78.0533 484.675 77.2C486.542 76.2933 488.542 75.5733 490.675 75.04C492.808 74.4533 495.022 74.16 497.315 74.16C500.888 74.16 503.822 74.8267 506.115 76.16C508.462 77.4933 510.195 79.36 511.315 81.76C512.488 84.1067 513.075 86.9067 513.075 90.16V114H507.715L507.155 108.72H506.915C504.782 110.427 502.382 111.893 499.715 113.12C497.048 114.347 494.328 114.96 491.555 114.96ZM493.315 109.68C495.555 109.68 497.768 109.173 499.955 108.16C502.142 107.147 504.328 105.733 506.515 103.92V93.68C500.968 94.16 496.595 94.8267 493.395 95.68C490.248 96.5333 488.008 97.6267 486.675 98.96C485.395 100.24 484.755 101.733 484.755 103.44C484.755 104.88 485.155 106.08 485.955 107.04C486.755 107.947 487.795 108.613 489.075 109.04C490.408 109.467 491.822 109.68 493.315 109.68ZM527.284 114V75.12H532.724L533.284 81.76H533.604C535.63 79.5733 537.817 77.76 540.164 76.32C542.51 74.88 545.204 74.16 548.244 74.16C552.83 74.16 556.217 75.4933 558.404 78.16C560.59 80.8267 561.684 84.72 561.684 89.84V114H555.124V90.72C555.124 87.04 554.43 84.32 553.044 82.56C551.657 80.7467 549.364 79.84 546.164 79.84C543.87 79.84 541.817 80.4267 540.004 81.6C538.19 82.7733 536.137 84.5333 533.844 86.88V114H527.284ZM587.493 114.96C585.093 114.96 582.879 114.533 580.853 113.68C578.826 112.773 577.226 111.493 576.053 109.84C574.879 108.187 574.293 106.213 574.293 103.92C574.293 99.5467 576.479 96.24 580.853 94C585.226 91.7067 592.426 90.16 602.453 89.36C602.399 87.6 602.026 85.9733 601.333 84.48C600.693 82.9867 599.626 81.8133 598.133 80.96C596.639 80.0533 594.639 79.6 592.133 79.6C590.479 79.6 588.826 79.84 587.173 80.32C585.573 80.7467 584.026 81.3333 582.533 82.08C581.093 82.7733 579.759 83.4933 578.533 84.24L575.973 79.76C577.253 78.9067 578.799 78.0533 580.613 77.2C582.479 76.2933 584.479 75.5733 586.613 75.04C588.746 74.4533 590.959 74.16 593.253 74.16C596.826 74.16 599.759 74.8267 602.053 76.16C604.399 77.4933 606.133 79.36 607.253 81.76C608.426 84.1067 609.013 86.9067 609.013 90.16V114H603.653L603.093 108.72H602.853C600.719 110.427 598.319 111.893 595.653 113.12C592.986 114.347 590.266 114.96 587.493 114.96ZM589.253 109.68C591.493 109.68 593.706 109.173 595.893 108.16C598.079 107.147 600.266 105.733 602.453 103.92V93.68C596.906 94.16 592.533 94.8267 589.333 95.68C586.186 96.5333 583.946 97.6267 582.613 98.96C581.333 100.24 580.693 101.733 580.693 103.44C580.693 104.88 581.093 106.08 581.893 107.04C582.693 107.947 583.733 108.613 585.013 109.04C586.346 109.467 587.759 109.68 589.253 109.68Z" fill="white"/>
</g>
</g>
<g opacity="0.45" clip-path="url(#clip1_2_18)">
<g filter="url(#filter3_d_2_18)">
<rect x="657.213" y="91.1421" width="10" height="50" transform="rotate(135 657.213 91.1421)" fill="white"/>
</g>
<g filter="url(#filter4_d_2_18)">
<rect x="650.182" y="98.1577" width="40" height="10" transform="rotate(135 650.182 98.1577)" fill="white"/>
</g>
</g>
<g opacity="0.45" clip-path="url(#clip2_2_18)">
<g filter="url(#filter5_d_2_18)">
<rect x="229.787" y="92.8579" width="10" height="50" transform="rotate(-45 229.787 92.8579)" fill="white"/>
</g>
<rect x="236.818" y="85.8423" width="40" height="10" transform="rotate(-45 236.818 85.8423)" fill="white"/>
<rect x="236.818" y="85.8423" width="40" height="10" transform="rotate(-45 236.818 85.8423)" stroke="black"/>
</g>
<rect x="30" y="35" width="195" height="109" fill="#676770" fill-opacity="0.49"/>
<g filter="url(#filter6_d_2_18)">
<line x1="681" y1="42" x2="681" y2="136" stroke="white" stroke-width="4"/>
</g>
</g>
</g>
<defs>
<filter id="filter0_d_2_18" x="0" y="0" width="938" height="188" filterUnits="userSpaceOnUse" color-interpolation-filters="sRGB">
<feFlood flood-opacity="0" result="BackgroundImageFix"/>
<feColorMatrix in="SourceAlpha" type="matrix" values="0 0 0 0 0 0 0 0 0 0 0 0 0 0 0 0 0 0 127 0" result="hardAlpha"/>
<feOffset dy="4"/>
<feGaussianBlur stdDeviation="2"/>
<feComposite in2="hardAlpha" operator="out"/>
<feColorMatrix type="matrix" values="0 0 0 0 0 0 0 0 0 0 0 0 0 0 0 0 0 0 0.25 0"/>
<feBlend mode="normal" in2="BackgroundImageFix" result="effect1_dropShadow_2_18"/>
<feBlend mode="normal" in="SourceGraphic" in2="effect1_dropShadow_2_18" result="shape"/>
</filter>
<filter id="filter1_d_2_18" x="26" y="35" width="888" height="118" filterUnits="userSpaceOnUse" color-interpolation-filters="sRGB">
<feFlood flood-opacity="0" result="BackgroundImageFix"/>
<feColorMatrix in="SourceAlpha" type="matrix" values="0 0 0 0 0 0 0 0 0 0 0 0 0 0 0 0 0 0 127 0" result="hardAlpha"/>
<feOffset dy="4"/>
<feGaussianBlur stdDeviation="2"/>
<feComposite in2="hardAlpha" operator="out"/>
<feColorMatrix type="matrix" values="0 0 0 0 0 0 0 0 0 0 0 0 0 0 0 0 0 0 0.25 0"/>
<feBlend mode="normal" in2="BackgroundImageFix" result="effect1_dropShadow_2_18"/>
<feBlend mode="normal" in="SourceGraphic" in2="effect1_dropShadow_2_18" result="shape"/>
</filter>
<filter id="filter2_d_2_18" x="283.36" y="56.72" width="333.653" height="82.64" filterUnits="userSpaceOnUse" color-interpolation-filters="sRGB">
<feFlood flood-opacity="0" result="BackgroundImageFix"/>
<feColorMatrix in="SourceAlpha" type="matrix" values="0 0 0 0 0 0 0 0 0 0 0 0 0 0 0 0 0 0 127 0" result="hardAlpha"/>
<feOffset dx="4" dy="4"/>
<feGaussianBlur stdDeviation="2"/>
<feComposite in2="hardAlpha" operator="out"/>
<feColorMatrix type="matrix" values="0 0 0 0 0.579219 0 0 0 0 0.737187 0 0 0 0 0.8425 0 0 0 0.88 0"/>
<feBlend mode="normal" in2="BackgroundImageFix" result="effect1_dropShadow_2_18"/>
<feBlend mode="normal" in="SourceGraphic" in2="effect1_dropShadow_2_18" result="shape"/>
</filter>
<filter id="filter3_d_2_18" x="610.787" y="55.7868" width="50.4263" height="50.4264" filterUnits="userSpaceOnUse" color-interpolation-filters="sRGB">
<feFlood flood-opacity="0" result="BackgroundImageFix"/>
<feColorMatrix in="SourceAlpha" type="matrix" values="0 0 0 0 0 0 0 0 0 0 0 0 0 0 0 0 0 0 127 0" result="hardAlpha"/>
<feOffset dy="4"/>
<feGaussianBlur stdDeviation="2"/>
<feComposite in2="hardAlpha" operator="out"/>
<feColorMatrix type="matrix" values="0 0 0 0 0.403922 0 0 0 0 0.403922 0 0 0 0 0.439216 0 0 0 1 0"/>
<feBlend mode="normal" in2="BackgroundImageFix" result="effect1_dropShadow_2_18"/>
<feBlend mode="normal" in="SourceGraphic" in2="effect1_dropShadow_2_18" result="shape"/>
</filter>
<filter id="filter4_d_2_18" x="610.827" y="91.0866" width="43.3555" height="43.3553" filterUnits="userSpaceOnUse" color-interpolation-filters="sRGB">
<feFlood flood-opacity="0" result="BackgroundImageFix"/>
<feColorMatrix in="SourceAlpha" type="matrix" values="0 0 0 0 0 0 0 0 0 0 0 0 0 0 0 0 0 0 127 0" result="hardAlpha"/>
<feOffset dy="4"/>
<feGaussianBlur stdDeviation="2"/>
<feComposite in2="hardAlpha" operator="out"/>
<feColorMatrix type="matrix" values="0 0 0 0 0.403922 0 0 0 0 0.403922 0 0 0 0 0.439216 0 0 0 1 0"/>
<feBlend mode="normal" in2="BackgroundImageFix" result="effect1_dropShadow_2_18"/>
<feBlend mode="normal" in="SourceGraphic" in2="effect1_dropShadow_2_18" result="shape"/>
</filter>
<filter id="filter5_d_2_18" x="229.787" y="81.7868" width="50.4265" height="50.4264" filterUnits="userSpaceOnUse" color-interpolation-filters="sRGB">
<feFlood flood-opacity="0" result="BackgroundImageFix"/>
<feColorMatrix in="SourceAlpha" type="matrix" values="0 0 0 0 0 0 0 0 0 0 0 0 0 0 0 0 0 0 127 0" result="hardAlpha"/>
<feOffset dx="4"/>
<feGaussianBlur stdDeviation="2"/>
<feComposite in2="hardAlpha" operator="out"/>
<feColorMatrix type="matrix" values="0 0 0 0 0.403922 0 0 0 0 0.403922 0 0 0 0 0.439216 0 0 0 1 0"/>
<feBlend mode="normal" in2="BackgroundImageFix" result="effect1_dropShadow_2_18"/>
<feBlend mode="normal" in="SourceGraphic" in2="effect1_dropShadow_2_18" result="shape"/>
</filter>
<filter id="filter6_d_2_18" x="675" y="42" width="12" height="102" filterUnits="userSpaceOnUse" color-interpolation-filters="sRGB">
<feFlood flood-opacity="0" result="BackgroundImageFix"/>
<feColorMatrix in="SourceAlpha" type="matrix" values="0 0 0 0 0 0 0 0 0 0 0 0 0 0 0 0 0 0 127 0" result="hardAlpha"/>
<feOffset dy="4"/>
<feGaussianBlur stdDeviation="2"/>
<feComposite in2="hardAlpha" operator="out"/>
<feColorMatrix type="matrix" values="0 0 0 0 0.403922 0 0 0 0 0.403922 0 0 0 0 0.439216 0 0 0 1 0"/>
<feBlend mode="normal" in2="BackgroundImageFix" result="effect1_dropShadow_2_18"/>
<feBlend mode="normal" in="SourceGraphic" in2="effect1_dropShadow_2_18" result="shape"/>
</filter>
<clipPath id="clip0_2_18">
<rect width="342" height="105" fill="white" transform="translate(280 35)"/>
</clipPath>
<clipPath id="clip1_2_18">
<rect width="45" height="75" fill="white" transform="matrix(-1 0 0 -1 658 127)"/>
</clipPath>
<clipPath id="clip2_2_18">
<rect width="45" height="75" fill="white" transform="translate(229 57)"/>
</clipPath>
</defs>
</svg>
